<svg xmlns="http://www.w3.org/2000/svg" width="1520" height="980" viewBox="0 0 1520 980">
<defs><filter id="sh" x="-10%" y="-10%" width="120%" height="125%"><feDropShadow dx="0" dy="14" stdDeviation="16" flood-color="#1e2642" flood-opacity="0.16"/></filter>
<clipPath id="win"><rect width="1440" height="900" rx="14"/></clipPath></defs>
<g transform="translate(40 32)"><rect width="1440" height="900" rx="14" fill="#eef0f6" filter="url(#sh)"/>
<g clip-path="url(#win)"><rect x="0" y="0" width="1440" height="900" rx="14" fill="#eef0f6" /><rect x="0" y="0" width="1440" height="62" rx="14" fill="#e4e7ef" /><rect x="0" y="40" width="1440" height="22" rx="0" fill="#e4e7ef" /><path d="M0 62H1440" stroke="#d9dde8"/><g transform="translate(24 21) scale(0.8333333333333334)" fill="none" stroke="#5a6177" stroke-width="2.0" stroke-linecap="round" stroke-linejoin="round"><rect x="3" y="4" width="18" height="16" rx="2"/><path d="M9 4v16"/></g><g transform="translate(64 10) scale(0.11) translate(-64 -96)">
<path d="M124 318 C124 196 184 132 256 132 C328 132 388 196 388 318 Z" fill="#f4a62a"/>
<rect x="232" y="120" width="48" height="198" rx="20" fill="#ffc766"/><rect x="80" y="304" width="352" height="48" rx="24" fill="#ffc766"/>
<ellipse cx="206" cy="402" rx="22" ry="28" fill="#e7e9f1"/><ellipse cx="306" cy="402" rx="22" ry="28" fill="#e7e9f1"/>
<circle cx="212" cy="410" r="11" fill="#0b0d13"/><circle cx="312" cy="410" r="11" fill="#0b0d13"/></g><text x="116" y="36" font-family="Geist, 'Geist Sans', Inter, 'Segoe UI', Roboto, Helvetica, Arial, sans-serif" font-size="15" font-weight="700" fill="#161925" text-anchor="start">Git Grunt</text><text x="208" y="36" font-family="Geist, 'Geist Sans', Inter, 'Segoe UI', Roboto, Helvetica, Arial, sans-serif" font-size="15" font-weight="400" fill="#5a6177" text-anchor="start">you</text><text x="238" y="36" font-family="Geist, 'Geist Sans', Inter, 'Segoe UI', Roboto, Helvetica, Arial, sans-serif" font-size="15" font-weight="400" fill="#8f95a8" text-anchor="start">/</text><text x="252" y="36" font-family="Geist, 'Geist Sans', Inter, 'Segoe UI', Roboto, Helvetica, Arial, sans-serif" font-size="15" font-weight="600" fill="#161925" text-anchor="start">my-website</text><rect x="356" y="12" width="112" height="38" rx="10" fill="#f4f5f9" stroke="#d9dde8" /><g transform="translate(370 22) scale(0.75)" fill="none" stroke="#161925" stroke-width="2.0" stroke-linecap="round" stroke-linejoin="round"><circle cx="6" cy="5" r="2"/><circle cx="6" cy="19" r="2"/><circle cx="18" cy="7" r="2"/><path d="M6 7v10M18 9c0 5-6 4-11 8"/></g><text x="396" y="37" font-family="Geist, 'Geist Sans', Inter, 'Segoe UI', Roboto, Helvetica, Arial, sans-serif" font-size="15" font-weight="600" fill="#161925" text-anchor="start">main</text><g transform="translate(440 23) scale(0.6666666666666666)" fill="none" stroke="#161925" stroke-width="2.0" stroke-linecap="round" stroke-linejoin="round"><path d="M7 10l5 5 5-5"/></g><text x="888" y="36" font-family="Geist, 'Geist Sans', Inter, 'Segoe UI', Roboto, Helvetica, Arial, sans-serif" font-size="13" font-weight="400" fill="#5a6177" text-anchor="end">1 to push · 2 to pull</text><g transform="translate(906 21) scale(0.8333333333333334)" fill="none" stroke="#5a6177" stroke-width="2.0" stroke-linecap="round" stroke-linejoin="round"><path d="M20 11a8 8 0 0 0-14.9-3M4 13a8 8 0 0 0 14.9 3"/><path d="M4 4v4h4M20 20v-4h-4"/></g><rect x="944" y="12" width="110" height="38" rx="10" fill="#f4f5f9" stroke="#d9dde8" /><g transform="translate(960 23.0) scale(0.6666666666666666)" fill="none" stroke="#161925" stroke-width="2.0" stroke-linecap="round" stroke-linejoin="round"><path d="M12 5v14M6 13l6 6 6-6"/></g><rect x="1020" y="21.0" width="22" height="20" rx="10" fill="#ffffff" /><text x="1031" y="35.0" font-family="Geist, 'Geist Sans', Inter, 'Segoe UI', Roboto, Helvetica, Arial, sans-serif" font-size="11" font-weight="600" fill="#161925" text-anchor="middle">2</text><text x="997.0" y="36.0" font-family="Geist, 'Geist Sans', Inter, 'Segoe UI', Roboto, Helvetica, Arial, sans-serif" font-size="14" font-weight="600" fill="#161925" text-anchor="middle">Pull</text><rect x="1066" y="12" width="116" height="38" rx="10" fill="#f4a62a" /><g transform="translate(1082 23.0) scale(0.6666666666666666)" fill="none" stroke="#1d1204" stroke-width="2.0" stroke-linecap="round" stroke-linejoin="round"><path d="M12 19V5M6 11l6-6 6 6"/></g><rect x="1148" y="21.0" width="22" height="20" rx="10" fill="#00000026" /><text x="1159" y="35.0" font-family="Geist, 'Geist Sans', Inter, 'Segoe UI', Roboto, Helvetica, Arial, sans-serif" font-size="11" font-weight="600" fill="#1d1204" text-anchor="middle">1</text><text x="1122.0" y="36.0" font-family="Geist, 'Geist Sans', Inter, 'Segoe UI', Roboto, Helvetica, Arial, sans-serif" font-size="14" font-weight="600" fill="#1d1204" text-anchor="middle">Push</text><g transform="translate(1196 21) scale(0.8333333333333334)" fill="none" stroke="#5a6177" stroke-width="2.0" stroke-linecap="round" stroke-linejoin="round"><circle cx="12" cy="12" r="4"/><path d="M12 2v2M12 20v2M4.9 4.9l1.4 1.4M17.7 17.7l1.4 1.4M2 12h2M20 12h2M4.9 19.1l1.4-1.4M17.7 6.3l1.4-1.4"/></g><circle cx="1252" cy="31" r="17" fill="#2a64d8"/><text x="1252" y="36" font-family="Geist, 'Geist Sans', Inter, 'Segoe UI', Roboto, Helvetica, Arial, sans-serif" font-size="12" font-weight="700" fill="#ffffff" text-anchor="middle">YO</text><path d="M1288 0V62" stroke="#d9dde8"/><path d="M1312 31h12" stroke="#5a6177" stroke-width="1.5"/><rect x="1361" y="25" width="12" height="12" rx="2" fill="none" stroke="#5a6177" /><g transform="translate(1408 23) scale(0.6666666666666666)" fill="none" stroke="#5a6177" stroke-width="1.5" stroke-linecap="round" stroke-linejoin="round"><path d="M6 6l12 12M18 6L6 18"/></g><rect x="0" y="62" width="272" height="838" rx="0" fill="#eef0f6" /><path d="M272 62V900" stroke="#d9dde8"/><text x="20" y="89" font-family="Geist, 'Geist Sans', Inter, 'Segoe UI', Roboto, Helvetica, Arial, sans-serif" font-size="12" font-weight="600" fill="#8f95a8" text-anchor="start">PROJECTS</text><rect x="11" y="101" width="250" height="40" rx="10" fill="#f4f5f9" stroke="#d9dde8" /><circle cx="26" cy="121" r="5" fill="#f4a62a"/><text x="41" y="126" font-family="Geist, 'Geist Sans', Inter, 'Segoe UI', Roboto, Helvetica, Arial, sans-serif" font-size="15" font-weight="500" fill="#161925" text-anchor="start">my-website</text><text x="251" y="125" font-family="Geist, 'Geist Sans', Inter, 'Segoe UI', Roboto, Helvetica, Arial, sans-serif" font-size="12" font-weight="400" fill="#8f95a8" text-anchor="end">4 changes</text><circle cx="26" cy="163" r="5" fill="#12935a"/><text x="41" y="168" font-family="Geist, 'Geist Sans', Inter, 'Segoe UI', Roboto, Helvetica, Arial, sans-serif" font-size="15" font-weight="400" fill="#161925" text-anchor="start">weather-app</text><text x="251" y="167" font-family="Geist, 'Geist Sans', Inter, 'Segoe UI', Roboto, Helvetica, Arial, sans-serif" font-size="12" font-weight="400" fill="#8f95a8" text-anchor="end">Up to date</text><circle cx="26" cy="205" r="5" fill="#2a64d8"/><text x="41" y="210" font-family="Geist, 'Geist Sans', Inter, 'Segoe UI', Roboto, Helvetica, Arial, sans-serif" font-size="15" font-weight="400" fill="#161925" text-anchor="start">school-notes</text><text x="251" y="209" font-family="Geist, 'Geist Sans', Inter, 'Segoe UI', Roboto, Helvetica, Arial, sans-serif" font-size="12" font-weight="400" fill="#8f95a8" text-anchor="end">2 to pull</text><circle cx="26" cy="247" r="5" fill="#d33a3a"/><text x="41" y="252" font-family="Geist, 'Geist Sans', Inter, 'Segoe UI', Roboto, Helvetica, Arial, sans-serif" font-size="15" font-weight="400" fill="#161925" text-anchor="start">discord-bot</text><text x="251" y="251" font-family="Geist, 'Geist Sans', Inter, 'Segoe UI', Roboto, Helvetica, Arial, sans-serif" font-size="12" font-weight="400" fill="#8f95a8" text-anchor="end">Push failed</text><rect x="15" y="275" width="196" height="36" rx="10" fill="#f4f5f9" stroke="#d9dde8" /><g transform="translate(31 285.0) scale(0.6666666666666666)" fill="none" stroke="#161925" stroke-width="2.0" stroke-linecap="round" stroke-linejoin="round"><path d="M12 5v14M5 12h14"/></g><text x="121.0" y="298.0" font-family="Geist, 'Geist Sans', Inter, 'Segoe UI', Roboto, Helvetica, Arial, sans-serif" font-size="14" font-weight="600" fill="#161925" text-anchor="middle">Add project</text><rect x="219" y="275" width="37" height="36" rx="10" fill="#f4f5f9" stroke="#d9dde8" /><text x="237" y="298" font-family="Geist, 'Geist Sans', Inter, 'Segoe UI', Roboto, Helvetica, Arial, sans-serif" font-size="10" font-weight="700" fill="#161925" text-anchor="middle">•••</text><text x="20" y="343" font-family="Geist, 'Geist Sans', Inter, 'Segoe UI', Roboto, Helvetica, Arial, sans-serif" font-size="12" font-weight="600" fill="#8f95a8" text-anchor="start">THIS PROJECT</text><g transform="translate(23 369) scale(0.6666666666666666)" fill="none" stroke="#5a6177" stroke-width="2.0" stroke-linecap="round" stroke-linejoin="round"><circle cx="12" cy="12" r="3"/><path d="M12 3v6M12 15v6"/></g><text x="51" y="382" font-family="Geist, 'Geist Sans', Inter, 'Segoe UI', Roboto, Helvetica, Arial, sans-serif" font-size="15" font-weight="400" fill="#5a6177" text-anchor="start">Changes</text><rect x="221" y="367" width="28" height="20" rx="10" fill="#ffffff" /><text x="235" y="381" font-family="Geist, 'Geist Sans', Inter, 'Segoe UI', Roboto, Helvetica, Arial, sans-serif" font-size="11" font-weight="600" fill="#5a6177" text-anchor="middle">4</text><g transform="translate(23 411) scale(0.6666666666666666)" fill="none" stroke="#5a6177" stroke-width="2.0" stroke-linecap="round" stroke-linejoin="round"><path d="M3 7a2 2 0 0 1 2-2h4l2 2h8a2 2 0 0 1 2 2v8a2 2 0 0 1-2 2H5a2 2 0 0 1-2-2z"/></g><text x="51" y="424" font-family="Geist, 'Geist Sans', Inter, 'Segoe UI', Roboto, Helvetica, Arial, sans-serif" font-size="15" font-weight="400" fill="#5a6177" text-anchor="start">Files</text><rect x="11" y="441" width="250" height="40" rx="10" fill="#f4f5f9" stroke="#d9dde8" /><rect x="11" y="451" width="3" height="20" rx="1.5" fill="#f4a62a" /><g transform="translate(23 453) scale(0.6666666666666666)" fill="none" stroke="#161925" stroke-width="2.0" stroke-linecap="round" stroke-linejoin="round"><path d="M3 12a9 9 0 1 0 3-6.7L3 8"/><path d="M3 3v5h5M12 7v5l3 2"/></g><text x="51" y="466" font-family="Geist, 'Geist Sans', Inter, 'Segoe UI', Roboto, Helvetica, Arial, sans-serif" font-size="15" font-weight="500" fill="#161925" text-anchor="start">History</text><g transform="translate(23 495) scale(0.6666666666666666)" fill="none" stroke="#5a6177" stroke-width="2.0" stroke-linecap="round" stroke-linejoin="round"><circle cx="6" cy="6" r="2"/><circle cx="6" cy="18" r="2"/><circle cx="18" cy="18" r="2"/><path d="M6 8v8M18 16V9a3 3 0 0 0-3-3h-4"/></g><text x="51" y="508" font-family="Geist, 'Geist Sans', Inter, 'Segoe UI', Roboto, Helvetica, Arial, sans-serif" font-size="15" font-weight="400" fill="#5a6177" text-anchor="start">Pull requests</text><rect x="221" y="493" width="28" height="20" rx="10" fill="#ffffff" /><text x="235" y="507" font-family="Geist, 'Geist Sans', Inter, 'Segoe UI', Roboto, Helvetica, Arial, sans-serif" font-size="11" font-weight="600" fill="#5a6177" text-anchor="middle">2</text><g transform="translate(23 537) scale(0.6666666666666666)" fill="none" stroke="#5a6177" stroke-width="2.0" stroke-linecap="round" stroke-linejoin="round"><circle cx="12" cy="12" r="9"/><circle cx="12" cy="12" r="2"/></g><text x="51" y="550" font-family="Geist, 'Geist Sans', Inter, 'Segoe UI', Roboto, Helvetica, Arial, sans-serif" font-size="15" font-weight="400" fill="#5a6177" text-anchor="start">Issues</text><rect x="221" y="535" width="28" height="20" rx="10" fill="#ffffff" /><text x="235" y="549" font-family="Geist, 'Geist Sans', Inter, 'Segoe UI', Roboto, Helvetica, Arial, sans-serif" font-size="11" font-weight="600" fill="#5a6177" text-anchor="middle">5</text><g transform="translate(23 579) scale(0.6666666666666666)" fill="none" stroke="#5a6177" stroke-width="2.0" stroke-linecap="round" stroke-linejoin="round"><circle cx="12" cy="12" r="9"/><path d="M10 8.5l5 3.5-5 3.5z"/></g><text x="51" y="592" font-family="Geist, 'Geist Sans', Inter, 'Segoe UI', Roboto, Helvetica, Arial, sans-serif" font-size="15" font-weight="400" fill="#5a6177" text-anchor="start">Actions</text><rect x="11" y="784" width="250" height="104" rx="12" fill="none" stroke="#d9dde8" stroke-dasharray="4 4"/><g transform="translate(25 798) scale(0.6666666666666666)" fill="none" stroke="#161925" stroke-width="2.0" stroke-linecap="round" stroke-linejoin="round"><circle cx="12" cy="12" r="9"/><path d="M9.5 9a2.5 2.5 0 1 1 3.5 2.3c-.6.3-1 .9-1 1.6M12 16.5v.01"/></g><text x="49" y="811" font-family="Geist, 'Geist Sans', Inter, 'Segoe UI', Roboto, Helvetica, Arial, sans-serif" font-size="13" font-weight="600" fill="#161925" text-anchor="start">New to Git?</text><text x="25" y="836" font-family="Geist, 'Geist Sans', Inter, 'Segoe UI', Roboto, Helvetica, Arial, sans-serif" font-size="13" font-weight="400" fill="#5a6177" text-anchor="start">Edit files, tick the ones you want,</text><text x="25" y="856" font-family="Geist, 'Geist Sans', Inter, 'Segoe UI', Roboto, Helvetica, Arial, sans-serif" font-size="13" font-weight="400" fill="#5a6177" text-anchor="start">write what you did, then Commit</text><text x="25" y="876" font-family="Geist, 'Geist Sans', Inter, 'Segoe UI', Roboto, Helvetica, Arial, sans-serif" font-size="13" font-weight="400" fill="#5a6177" text-anchor="start">and Push.</text><rect x="272" y="62" width="1168" height="838" rx="0" fill="#eef0f6" /><text x="292" y="94" font-family="Geist, 'Geist Sans', Inter, 'Segoe UI', Roboto, Helvetica, Arial, sans-serif" font-size="16" font-weight="700" fill="#161925" text-anchor="start">History</text><text x="362" y="94" font-family="Geist, 'Geist Sans', Inter, 'Segoe UI', Roboto, Helvetica, Arial, sans-serif" font-size="13" font-weight="400" fill="#5a6177" text-anchor="start">Every snapshot saved on this branch, newest first. Click one to see what changed.</text><path d="M272 116H1440" stroke="#d9dde8"/><path d="M312 166V660" stroke="#d9dde8" stroke-width="2"/><rect x="287" y="130" width="1139" height="72" rx="12" fill="#ffffff" stroke="#d9dde8" /><circle cx="312" cy="166" r="7" fill="#ffffff" stroke="#f4a62a" stroke-width="2.5"/><text x="331" y="160" font-family="Geist, 'Geist Sans', Inter, 'Segoe UI', Roboto, Helvetica, Arial, sans-serif" font-size="15" font-weight="600" fill="#161925" text-anchor="start">Add dark mode toggle</text><text x="331" y="183" font-family="Geist, 'Geist Sans', Inter, 'Segoe UI', Roboto, Helvetica, Arial, sans-serif" font-size="13" font-weight="400" fill="#5a6177" text-anchor="start">You  ·  just now</text><text x="1410" y="171" font-family="'Geist Mono', 'SF Mono', Menlo, Consolas, monospace" font-size="13" font-weight="400" fill="#8f95a8" text-anchor="end">74bf20f</text><rect x="1256.0" y="155" width="90.0" height="22" rx="11.0" fill="#f4a62a24" /><text x="1301.0" y="172" font-family="Geist, 'Geist Sans', Inter, 'Segoe UI', Roboto, Helvetica, Arial, sans-serif" font-size="12" font-weight="600" fill="#9a5d00" text-anchor="middle">Not pushed</text><rect x="287" y="213" width="1139" height="72" rx="12" fill="#ffffff" stroke="#d9dde8" /><circle cx="312" cy="249" r="7" fill="#ffffff" stroke="#f4a62a" stroke-width="2.5"/><text x="331" y="243" font-family="Geist, 'Geist Sans', Inter, 'Segoe UI', Roboto, Helvetica, Arial, sans-serif" font-size="15" font-weight="600" fill="#161925" text-anchor="start">Fix typo on the about page</text><text x="331" y="266" font-family="Geist, 'Geist Sans', Inter, 'Segoe UI', Roboto, Helvetica, Arial, sans-serif" font-size="13" font-weight="400" fill="#5a6177" text-anchor="start">You  ·  2 hours ago</text><text x="1410" y="254" font-family="'Geist Mono', 'SF Mono', Menlo, Consolas, monospace" font-size="13" font-weight="400" fill="#8f95a8" text-anchor="end">876ffc4</text><rect x="287" y="296" width="1139" height="72" rx="12" fill="#ffffff" stroke="#d9dde8" /><circle cx="312" cy="332" r="7" fill="#ffffff" stroke="#f4a62a" stroke-width="2.5"/><text x="331" y="326" font-family="Geist, 'Geist Sans', Inter, 'Segoe UI', Roboto, Helvetica, Arial, sans-serif" font-size="15" font-weight="600" fill="#161925" text-anchor="start">Add contact form</text><text x="331" y="349" font-family="Geist, 'Geist Sans', Inter, 'Segoe UI', Roboto, Helvetica, Arial, sans-serif" font-size="13" font-weight="400" fill="#5a6177" text-anchor="start">Sam  ·  yesterday</text><text x="1410" y="337" font-family="'Geist Mono', 'SF Mono', Menlo, Consolas, monospace" font-size="13" font-weight="400" fill="#8f95a8" text-anchor="end">74c0251</text><rect x="287" y="379" width="1139" height="72" rx="12" fill="#ffffff" stroke="#d9dde8" /><circle cx="312" cy="415" r="7" fill="#ffffff" stroke="#f4a62a" stroke-width="2.5"/><text x="331" y="409" font-family="Geist, 'Geist Sans', Inter, 'Segoe UI', Roboto, Helvetica, Arial, sans-serif" font-size="15" font-weight="600" fill="#161925" text-anchor="start">Make images load faster</text><text x="331" y="432" font-family="Geist, 'Geist Sans', Inter, 'Segoe UI', Roboto, Helvetica, Arial, sans-serif" font-size="13" font-weight="400" fill="#5a6177" text-anchor="start">You  ·  2 days ago</text><text x="1410" y="420" font-family="'Geist Mono', 'SF Mono', Menlo, Consolas, monospace" font-size="13" font-weight="400" fill="#8f95a8" text-anchor="end">908fcdc</text><rect x="287" y="462" width="1139" height="72" rx="12" fill="#ffffff" stroke="#d9dde8" /><circle cx="312" cy="498" r="7" fill="#ffffff" stroke="#f4a62a" stroke-width="2.5"/><text x="331" y="492" font-family="Geist, 'Geist Sans', Inter, 'Segoe UI', Roboto, Helvetica, Arial, sans-serif" font-size="15" font-weight="600" fill="#161925" text-anchor="start">Update README</text><text x="331" y="515" font-family="Geist, 'Geist Sans', Inter, 'Segoe UI', Roboto, Helvetica, Arial, sans-serif" font-size="13" font-weight="400" fill="#5a6177" text-anchor="start">Alex  ·  3 days ago</text><text x="1410" y="503" font-family="'Geist Mono', 'SF Mono', Menlo, Consolas, monospace" font-size="13" font-weight="400" fill="#8f95a8" text-anchor="end">e4b314f</text><rect x="287" y="545" width="1139" height="72" rx="12" fill="#ffffff" stroke="#d9dde8" /><circle cx="312" cy="581" r="7" fill="#ffffff" stroke="#f4a62a" stroke-width="2.5"/><text x="331" y="575" font-family="Geist, 'Geist Sans', Inter, 'Segoe UI', Roboto, Helvetica, Arial, sans-serif" font-size="15" font-weight="600" fill="#161925" text-anchor="start">Add a header and footer</text><text x="331" y="598" font-family="Geist, 'Geist Sans', Inter, 'Segoe UI', Roboto, Helvetica, Arial, sans-serif" font-size="13" font-weight="400" fill="#5a6177" text-anchor="start">You  ·  last week</text><text x="1410" y="586" font-family="'Geist Mono', 'SF Mono', Menlo, Consolas, monospace" font-size="13" font-weight="400" fill="#8f95a8" text-anchor="end">68d9dcb</text><rect x="287" y="628" width="1139" height="72" rx="12" fill="#ffffff" stroke="#d9dde8" /><circle cx="312" cy="664" r="7" fill="#ffffff" stroke="#f4a62a" stroke-width="2.5"/><text x="331" y="658" font-family="Geist, 'Geist Sans', Inter, 'Segoe UI', Roboto, Helvetica, Arial, sans-serif" font-size="15" font-weight="600" fill="#161925" text-anchor="start">Initial commit</text><text x="331" y="681" font-family="Geist, 'Geist Sans', Inter, 'Segoe UI', Roboto, Helvetica, Arial, sans-serif" font-size="13" font-weight="400" fill="#5a6177" text-anchor="start">You  ·  last week</text><text x="1410" y="669" font-family="'Geist Mono', 'SF Mono', Menlo, Consolas, monospace" font-size="13" font-weight="400" fill="#8f95a8" text-anchor="end">d7a085a</text><rect x="0" y="0" width="1440" height="900" rx="14" fill="#000000" opacity=".5"/><rect x="420" y="210" width="600" height="420" rx="16" fill="#ffffff" stroke="#d9dde8" /><rect x="444" y="236" width="44" height="44" rx="12" fill="#d33a3a14" /><g transform="translate(454 246) scale(1.0)" fill="none" stroke="#d33a3a" stroke-width="2.0" stroke-linecap="round" stroke-linejoin="round"><path d="M12 3l9.5 17h-19z"/><path d="M12 10v4M12 17.5v.01"/></g><text x="504" y="256" font-family="Geist, 'Geist Sans', Inter, 'Segoe UI', Roboto, Helvetica, Arial, sans-serif" font-size="18" font-weight="700" fill="#161925" text-anchor="start">GitHub has changes you don't have yet</text><text x="504" y="278" font-family="Geist, 'Geist Sans', Inter, 'Segoe UI', Roboto, Helvetica, Arial, sans-serif" font-size="14" font-weight="400" fill="#5a6177" text-anchor="start">Your push was turned down, nothing was lost.</text><text x="444" y="326" font-family="Geist, 'Geist Sans', Inter, 'Segoe UI', Roboto, Helvetica, Arial, sans-serif" font-size="14" font-weight="400" fill="#161925" text-anchor="start">Someone pushed new commits to main since you last pulled.</text><text x="444" y="348" font-family="Geist, 'Geist Sans', Inter, 'Segoe UI', Roboto, Helvetica, Arial, sans-serif" font-size="14" font-weight="400" fill="#161925" text-anchor="start">Pull their changes first, then push yours on top.</text><rect x="444" y="374" width="552" height="112" rx="10" fill="#e4e7ef" stroke="#d9dde8" /><text x="460" y="400" font-family="Geist, 'Geist Sans', Inter, 'Segoe UI', Roboto, Helvetica, Arial, sans-serif" font-size="11" font-weight="600" fill="#8f95a8" text-anchor="start">WHAT GIT SAID</text><rect x="460" y="418" width="380" height="8" rx="4" fill="#cdd2de" /><rect x="460" y="438" width="470" height="8" rx="4" fill="#cdd2de" /><rect x="460" y="458" width="300" height="8" rx="4" fill="#cdd2de" /><rect x="444" y="506" width="552" height="40" rx="10" fill="#f4a62a24" /><g transform="translate(458 518) scale(0.6666666666666666)" fill="none" stroke="#f4a62a" stroke-width="2.0" stroke-linecap="round" stroke-linejoin="round"><path d="M12 3l1.8 5.2L19 10l-5.2 1.8L12 17l-1.8-5.2L5 10l5.2-1.8z"/></g><text x="482" y="531" font-family="Geist, 'Geist Sans', Inter, 'Segoe UI', Roboto, Helvetica, Arial, sans-serif" font-size="13" font-weight="400" fill="#5a6177" text-anchor="start">Tip: pull often so this happens less.</text><text x="784" y="596" font-family="Geist, 'Geist Sans', Inter, 'Segoe UI', Roboto, Helvetica, Arial, sans-serif" font-size="15" font-weight="500" fill="#161925" text-anchor="middle">Close</text><rect x="824" y="572" width="172" height="40" rx="10" fill="#f4a62a" /><g transform="translate(840 584.0) scale(0.6666666666666666)" fill="none" stroke="#1d1204" stroke-width="2.0" stroke-linecap="round" stroke-linejoin="round"><path d="M12 5v14M6 13l6 6 6-6"/></g><text x="918.0" y="597.0" font-family="Geist, 'Geist Sans', Inter, 'Segoe UI', Roboto, Helvetica, Arial, sans-serif" font-size="14" font-weight="600" fill="#1d1204" text-anchor="middle">Pull, then push</text></g><rect x=".5" y=".5" width="1439" height="899" rx="14" fill="none" stroke="#d9dde8"/></g>
</svg>
